<svg width="2500" height="2500" viewBox="0 0 64 64" fill="none" xmlns="http://www.w3.org/2000/svg">
  <rect width="64" height="64" rx="8" fill="#FFC107"/>
  <path d="M45.3 18.7L46.6 20C46.9 20.3 46.9 20.8 46.6 21.1L28.5 39.2C28.2 39.5 27.7 39.5 27.4 39.2L26.1 38C25.8 37.7 25.8 37.2 26.1 36.9L44.2 18.8C44.5 18.5 45 18.5 45.3 18.7Z" fill="white"/>
  <path d="M22 42.8L21.2 43.6C21 43.8 20.7 43.8 20.5 43.6L14.4 37.5C14.2 37.3 14.2 37 14.4 36.8L15.2 36C15.4 35.8 15.7 35.8 15.9 36L22 42.1C22.2 42.3 22.2 42.6 22 42.8Z" fill="white"/>
  <path d="M44 14C44 13.4 43.6 13 43 13H21C20.4 13 20 13.4 20 14V16H44V14Z" fill="white"/>
</svg>
